# This file uses centimeters as units for non-parametric coordinates.

mtllib Normal_Tile_4.mtl
g default
v -0.859598 0.172469 0.809610
v -0.806331 0.168277 0.860894
v -0.797498 0.231835 0.797498
v 0.797498 0.231835 0.797498
v 0.809610 0.172469 0.859598
v 0.859598 0.172469 0.809610
v -0.860894 0.168277 -0.806331
v -0.797498 0.231835 -0.797498
v -0.806331 0.168277 -0.860894
v 0.806331 0.168277 -0.860894
v 0.797498 0.231835 -0.797498
v 0.860894 0.168277 -0.806331
v -1.000000 -0.281728 0.945436
v -0.945436 -0.281728 1.000000
v 1.000000 -0.281728 0.945436
v 0.945436 -0.281728 1.000000
v -1.000000 -0.281728 -0.945436
v -0.945436 -0.281728 -1.000000
v 1.000000 -0.281728 -0.945436
v 0.945436 -0.281728 -1.000000
v 0.000000 -0.281728 1.000000
v 0.001640 0.170373 0.860246
v 0.000000 0.231835 0.797498
v 0.000000 0.214309 -0.797498
v 0.000000 0.168277 -0.860894
v 0.000000 -0.281728 -1.000000
v 1.000000 -0.281728 0.000000
v 0.860246 0.170373 0.001640
v 0.797498 0.231835 0.000000
v 0.000000 0.249448 0.000000
v -0.797498 0.231835 0.000000
v -0.860246 0.170373 0.001640
v -1.000000 -0.281728 0.000000
v -1.000000 -0.281728 0.472718
v -0.859922 0.171421 0.405625
v -0.797498 0.231835 0.398749
v 0.000000 0.224956 0.398749
v 0.797498 0.231835 0.398749
v 0.859922 0.171421 0.405625
v 1.000000 -0.281728 0.472718
v -1.000000 -0.281728 -0.472718
v -0.860570 0.169325 -0.402346
v -0.797498 0.251990 -0.398749
v 0.000000 0.312331 -0.398749
v 0.797498 0.231835 -0.398749
v 0.860570 0.169325 -0.402346
v 1.000000 -0.281728 -0.472718
v -0.472718 -0.281728 1.000000
v -0.402346 0.169325 0.860570
v -0.398749 0.231835 0.797498
v -0.398749 0.226414 0.398749
v -0.398749 0.265231 0.000000
v -0.398749 0.271265 -0.398749
v -0.398749 0.193758 -0.797498
v -0.403165 0.168277 -0.860894
v -0.472718 -0.281728 -1.000000
v 0.472718 -0.281728 1.000000
v 0.405625 0.171421 0.859922
v 0.398749 0.231835 0.797498
v 0.398749 0.223346 0.398749
v 0.398749 0.252089 0.000000
v 0.398749 0.302308 -0.398749
v 0.398749 0.231835 -0.797498
v 0.403165 0.168277 -0.860894
v 0.472718 -0.281728 -1.000000
v -0.633925 0.273579 -0.505342
v -0.604218 0.276103 -0.594632
v -0.637409 0.309103 -0.540517
v -0.620877 0.319113 -0.613469
v -0.730510 0.275946 -0.576690
v -0.706590 0.275153 -0.641565
v -0.716073 0.228598 -0.565967
v -0.692902 0.235132 -0.636582
v -0.645037 0.291394 -0.509387
v -0.597084 0.294305 -0.609824
v -0.699870 0.255504 -0.639119
v -0.732775 0.255504 -0.548711
v -0.703339 0.286460 -0.560672
v -0.670673 0.292373 -0.635997
v -0.638528 0.275692 -0.645476
v -0.626806 0.257309 -0.612526
v -0.656591 0.259753 -0.530489
v -0.678733 0.274912 -0.538548
v -0.608144 0.270910 -0.554541
v -0.643259 0.257309 -0.567322
v -0.721336 0.227068 -0.595739
v -0.729338 0.250463 -0.598652
v -0.724324 0.278899 -0.596827
v -0.695417 0.290096 -0.586306
v -0.624977 0.317658 -0.573285
v -0.611211 0.300399 -0.558509
v -0.613297 0.237753 -0.489001
v -0.550064 0.242956 -0.513773
v -0.592039 0.291884 -0.504134
v -0.552547 0.302411 -0.514156
v -0.593652 0.292586 -0.647234
v -0.543467 0.291494 -0.647234
v -0.597382 0.227367 -0.647234
v -0.543467 0.236367 -0.647234
v -0.613297 0.264657 -0.495332
v -0.537932 0.264428 -0.504134
v -0.543467 0.264428 -0.647234
v -0.613297 0.264428 -0.647234
v -0.597832 0.291645 -0.605941
v -0.538348 0.296653 -0.597543
v -0.523903 0.264428 -0.572778
v -0.543467 0.232203 -0.554295
v -0.603489 0.235559 -0.554295
v -0.603489 0.264428 -0.575684
v -0.578382 0.232203 -0.504134
v -0.578382 0.232203 -0.554295
v -0.578382 0.232203 -0.665826
v -0.578382 0.264428 -0.665826
v -0.578382 0.296653 -0.647234
v -0.578382 0.296653 -0.605941
v -0.578382 0.296653 -0.504134
v -0.578382 0.264428 -0.504134
vt 0.433577 0.856121
vt 0.449208 0.857398
vt 0.407809 0.718962
vt 0.391179 0.718962
vt 0.449208 0.857398
vt 0.433972 0.857398
vt 0.391179 0.718962
vt 0.407809 0.718962
vt 0.550172 0.855237
vt 0.567545 0.855237
vt 0.611836 0.711958
vt 0.594463 0.711958
vt 0.567545 0.855237
vt 0.550172 0.855237
vt 0.594463 0.711958
vt 0.611836 0.711958
vt 0.452900 0.871359
vt 0.452900 0.871359
vt 0.547360 0.871155
vt 0.547360 0.871155
vt 0.667658 0.826499
vt 0.932133 0.825813
vt 0.954900 0.752163
vt 0.645428 0.752163
vt 0.359161 0.942659
vt 0.363855 0.960412
vt 0.982046 0.960412
vt 0.985469 0.941035
vt 0.363855 0.960412
vt 0.359161 0.942659
vt 0.985469 0.941035
vt 0.982046 0.960412
vt 0.667658 0.826499
vt 0.645428 0.752163
vt 0.954900 0.752163
vt 0.932133 0.825813
vt 0.668195 0.825813
vt 0.645428 0.752163
vt 0.954900 0.752163
vt 0.932670 0.826499
vt 0.980775 0.960412
vt 0.362584 0.960412
vt 0.359161 0.941035
vt 0.985469 0.942659
vt 0.359161 0.941035
vt 0.362584 0.960412
vt 0.980775 0.960412
vt 0.984198 0.941035
vt 0.954900 0.752163
vt 0.645428 0.752163
vt 0.668195 0.825813
vt 0.932133 0.825813
vt 0.980720 0.675601
vt 0.327083 0.675601
vt 0.327083 0.021963
vt 0.980720 0.021963
vt 0.800164 0.752163
vt 0.800433 0.826156
vt 0.672315 0.941847
vt 0.671679 0.960412
vt 0.653901 0.021963
vt 0.671679 0.960412
vt 0.653901 0.675601
vt 0.671679 0.941035
vt 0.800164 0.825813
vt 0.800164 0.752163
vt 0.800164 0.752163
vt 0.672315 0.941847
vt 0.799896 0.826156
vt 0.672951 0.960412
vt 0.980720 0.348782
vt 0.653901 0.348782
vt 0.672951 0.960412
vt 0.327083 0.348782
vt 0.799896 0.826156
vt 0.672315 0.941847
vt 0.800164 0.752163
vt 0.722796 0.752163
vt 0.733777 0.826328
vt 0.515738 0.942253
vt 0.518403 0.960412
vt 0.327083 0.185373
vt 0.653901 0.185373
vt 0.518403 0.960412
vt 0.980720 0.185373
vt 0.515738 0.942253
vt 0.733777 0.826328
vt 0.722796 0.752163
vt 0.877532 0.752163
vt 0.866014 0.825984
vt 0.828892 0.941441
vt 0.827498 0.960412
vt 0.327083 0.512192
vt 0.653901 0.512192
vt 0.827498 0.960412
vt 0.980720 0.512192
vt 0.828892 0.941441
vt 0.866014 0.825984
vt 0.877532 0.752163
vt 0.722796 0.752163
vt 0.734314 0.825984
vt 0.515738 0.941441
vt 0.517132 0.960412
vt 0.490492 0.021963
vt 0.490492 0.185373
vt 0.490492 0.348782
vt 0.490492 0.512192
vt 0.517132 0.960412
vt 0.490492 0.675601
vt 0.515420 0.941035
vt 0.734179 0.825813
vt 0.722796 0.752163
vt 0.877532 0.752163
vt 0.866551 0.826328
vt 0.828892 0.942253
vt 0.826227 0.960412
vt 0.817311 0.021963
vt 0.817311 0.185373
vt 0.817311 0.348782
vt 0.817311 0.512192
vt 0.826227 0.960412
vt 0.817311 0.675601
vt 0.827939 0.941035
vt 0.866148 0.825813
vt 0.877532 0.752163
vt 0.141558 0.725636
vt 0.141422 0.763945
vt 0.103114 0.763809
vt 0.103250 0.725501
vt 0.141829 0.649020
vt 0.141694 0.687328
vt 0.103385 0.687193
vt 0.103521 0.648884
vt 0.141965 0.610712
vt 0.103657 0.610576
vt 0.142236 0.534095
vt 0.142100 0.572404
vt 0.103792 0.572268
vt 0.103928 0.533960
vt 0.064942 0.725365
vt 0.064806 0.763673
vt 0.026498 0.763538
vt 0.026633 0.725230
vt 0.256347 0.764351
vt 0.218039 0.764216
vt 0.218174 0.725908
vt 0.256483 0.726043
vt 0.141287 0.802253
vt 0.102979 0.802117
vt 0.064670 0.801982
vt 0.026362 0.801846
vt 0.256211 0.802660
vt 0.217903 0.802524
vt 0.142372 0.495787
vt 0.104063 0.495651
vt 0.179595 0.802388
vt 0.179731 0.764080
vt 0.179866 0.725772
vt 0.180544 0.534231
vt 0.180680 0.495923
vt 0.180409 0.572539
vt 0.180273 0.610847
vt 0.180137 0.649156
vt 0.180002 0.687464
vt 0.141558 0.725636
vt 0.141422 0.763945
vt 0.103114 0.763809
vt 0.103250 0.725501
vt 0.141829 0.649020
vt 0.141694 0.687328
vt 0.103385 0.687193
vt 0.103521 0.648884
vt 0.141965 0.610712
vt 0.103657 0.610576
vt 0.142236 0.534095
vt 0.142100 0.572404
vt 0.103792 0.572268
vt 0.103928 0.533960
vt 0.064942 0.725365
vt 0.064806 0.763673
vt 0.026498 0.763538
vt 0.026633 0.725230
vt 0.256347 0.764351
vt 0.218039 0.764216
vt 0.218174 0.725908
vt 0.256483 0.726043
vt 0.141287 0.802253
vt 0.102979 0.802117
vt 0.064670 0.801982
vt 0.026362 0.801846
vt 0.256211 0.802660
vt 0.217903 0.802524
vt 0.142372 0.495787
vt 0.104063 0.495651
vt 0.179595 0.802388
vt 0.179731 0.764080
vt 0.179866 0.725772
vt 0.180544 0.534231
vt 0.180680 0.495923
vt 0.180409 0.572539
vt 0.180273 0.610847
vt 0.180137 0.649156
vt 0.180002 0.687464
vn -0.548977 0.490605 0.676706
vn -0.627823 0.415776 0.658003
vn -0.634822 0.397668 0.662466
vn -0.634822 0.397668 0.662466
vn 0.661539 0.492094 0.565870
vn 0.565870 0.492094 0.661540
vn 0.649587 0.395059 0.649588
vn 0.649587 0.395059 0.649588
vn -0.663734 0.494155 -0.561488
vn -0.561228 0.494196 -0.663923
vn -0.647901 0.400560 -0.647901
vn -0.647901 0.400560 -0.647901
vn 0.561228 0.494196 -0.663923
vn 0.663734 0.494155 -0.561488
vn 0.647901 0.400560 -0.647901
vn 0.647901 0.400560 -0.647901
vn -0.627823 0.415776 0.658003
vn -0.548977 0.490605 0.676706
vn -0.070541 0.788512 0.610960
vn 0.339988 0.876822 0.339988
vn 0.565870 0.492094 0.661540
vn 0.661539 0.492094 0.565870
vn -0.663734 0.494155 -0.561488
vn -0.360043 0.860262 -0.360997
vn -0.561228 0.494196 -0.663923
vn 0.561228 0.494196 -0.663923
vn 0.360043 0.860262 -0.360997
vn 0.663734 0.494155 -0.561488
vn -0.955394 0.295333 0.000000
vn -0.955394 0.295333 0.000000
vn -0.955395 0.295333 0.000000
vn -0.955395 0.295333 0.000000
vn -0.695375 0.718647 -0.000658
vn -0.695589 0.718439 -0.000657
vn -0.728013 0.685514 0.008224
vn -0.727091 0.686495 0.007948
vn 0.695589 0.718439 -0.000657
vn 0.695375 0.718647 -0.000658
vn 0.699735 0.714402 -0.000650
vn 0.699782 0.714356 -0.000650
vn 0.955394 0.295333 0.000000
vn 0.955394 0.295333 0.000000
vn 0.955395 0.295333 0.000000
vn 0.955395 0.295333 0.000000
vn 0.000000 0.295333 0.955394
vn 0.000000 0.295333 0.955394
vn 0.000000 0.295333 0.955395
vn 0.000000 0.295333 0.955395
vn -0.000643 0.710227 0.703973
vn -0.000643 0.710335 0.703864
vn -0.070541 0.788512 0.610960
vn -0.548977 0.490605 0.676706
vn -0.561228 0.494196 -0.663923
vn -0.360043 0.860262 -0.360997
vn 0.008147 0.845059 -0.534611
vn 0.010477 0.842941 -0.537904
vn 0.000000 0.295333 -0.955395
vn 0.000000 0.295333 -0.955395
vn 0.000000 0.295332 -0.955395
vn 0.000000 0.295332 -0.955395
vn -0.014135 0.999681 0.020931
vn -0.001200 0.999649 0.026449
vn -0.027766 0.997709 0.061690
vn -0.050434 0.997899 0.040682
vn 0.000000 0.295333 0.955395
vn 0.000000 0.295333 0.955395
vn 0.000000 0.295333 0.955394
vn 0.000000 0.295333 0.955394
vn -0.000658 0.718647 0.695375
vn -0.000657 0.718439 0.695590
vn -0.000650 0.714356 0.699782
vn -0.000650 0.714402 0.699735
vn 0.001206 0.999833 0.018213
vn 0.034090 0.996476 0.076645
vn -0.000491 0.995649 0.093179
vn 0.006040 0.999594 0.027849
vn -0.019317 0.813649 -0.581035
vn -0.019265 0.812612 -0.582486
vn -0.008165 0.731394 -0.681907
vn -0.007728 0.730071 -0.683328
vn 0.000000 0.295332 -0.955395
vn 0.000000 0.295332 -0.955395
vn 0.000000 0.295333 -0.955395
vn 0.000000 0.295333 -0.955395
vn 0.955395 0.295333 0.000000
vn 0.955395 0.295333 0.000000
vn 0.955395 0.295332 0.000000
vn 0.955395 0.295332 0.000000
vn 0.703864 0.710335 -0.000643
vn 0.703973 0.710227 -0.000643
vn 0.663734 0.494155 -0.561488
vn 0.360043 0.860262 -0.360997
vn 0.049951 0.998470 -0.023714
vn 0.038896 0.988192 -0.148202
vn -0.042563 0.976628 -0.210679
vn -0.027068 0.998364 -0.050356
vn -0.021208 0.998773 -0.044755
vn -0.037978 0.997704 -0.056084
vn -0.026580 0.985277 -0.168887
vn 0.000000 1.000000 0.000000
vn -0.754569 0.656220 -0.000984
vn -0.754519 0.656279 -0.000222
vn -0.360043 0.860262 -0.360997
vn -0.663734 0.494155 -0.561488
vn -0.955395 0.295333 0.000000
vn -0.955395 0.295333 0.000000
vn -0.955395 0.295332 0.000000
vn -0.955395 0.295332 0.000000
vn -0.955395 0.295332 0.000000
vn -0.955395 0.295332 0.000000
vn -0.594520 0.804080 -0.000810
vn -0.594520 0.804080 -0.000810
vn 0.004313 0.999929 -0.011110
vn 0.000000 1.000000 0.000000
vn -0.004312 0.999879 -0.014956
vn 0.001923 0.999848 -0.017345
vn 0.339988 0.876822 0.339988
vn 0.661539 0.492094 0.565870
vn 0.955395 0.295332 0.000000
vn 0.955395 0.295332 0.000000
vn 0.000000 0.295332 0.955395
vn 0.000000 0.295332 0.955395
vn 0.339988 0.876822 0.339988
vn 0.565870 0.492094 0.661540
vn 0.002053 0.999917 0.012697
vn 0.000000 1.000000 0.000000
vn 0.064048 0.996726 0.049344
vn 0.100546 0.994852 -0.012633
vn 0.030087 0.999094 -0.030087
vn 0.360043 0.860262 -0.360997
vn 0.561228 0.494196 -0.663923
vn 0.000000 0.295332 -0.955395
vn 0.000000 0.295332 -0.955395
vn 0.717608 0.688010 0.108078
vn 0.717608 0.688010 0.108078
vn 0.717608 0.688010 0.108078
vn 0.717608 0.688010 0.108078
vn -0.358388 0.916933 -0.175477
vn -0.358388 0.916933 -0.175477
vn -0.358388 0.916933 -0.175477
vn -0.358388 0.916933 -0.175477
vn -0.873891 -0.037281 -0.484690
vn -0.873891 -0.037281 -0.484690
vn -0.873891 -0.037281 -0.484690
vn -0.873891 -0.037281 -0.484690
vn 0.316073 -0.945665 0.076257
vn 0.316073 -0.945665 0.076257
vn 0.316073 -0.945665 0.076257
vn 0.316073 -0.945665 0.076257
vn -0.057915 0.129674 -0.989864
vn -0.057915 0.129674 -0.989864
vn -0.057915 0.129674 -0.989864
vn -0.057915 0.129674 -0.989864
vn -0.439487 0.655304 0.614352
vn -0.439487 0.655304 0.614352
vn -0.439487 0.655304 0.614352
vn -0.439487 0.655304 0.614352
vn 0.981020 -0.005772 0.193818
vn 0.981021 -0.005772 0.193818
vn 0.981020 -0.005772 0.193818
vn 0.981021 -0.005772 0.193818
vn 0.294670 -0.564142 -0.771306
vn 0.294670 -0.564142 -0.771306
vn 0.294670 -0.564142 -0.771306
vn 0.294670 -0.564142 -0.771306
vn -0.744084 -0.327015 -0.582581
vn -0.744084 -0.327015 -0.582581
vn -0.744084 -0.327015 -0.582581
vn -0.744084 -0.327015 -0.582581
vn -0.195330 -0.378215 0.904876
vn -0.195330 -0.378215 0.904876
vn -0.195330 -0.378215 0.904876
vn -0.195330 -0.378215 0.904876
vn -0.388664 0.917297 -0.086640
vn -0.388664 0.917297 -0.086640
vn -0.388664 0.917297 -0.086640
vn -0.388664 0.917297 -0.086640
vn 0.279969 0.493289 -0.823580
vn 0.279969 0.493289 -0.823580
vn 0.279969 0.493289 -0.823580
vn 0.279969 0.493289 -0.823580
vn 0.704205 -0.531349 -0.470919
vn 0.704205 -0.531349 -0.470919
vn 0.704205 -0.531349 -0.470919
vn 0.704205 -0.531349 -0.470919
vn 0.465346 -0.883265 0.057411
vn 0.465346 -0.883265 0.057411
vn 0.465346 -0.883265 0.057411
vn 0.465346 -0.883265 0.057411
vn -0.573903 -0.298915 0.762420
vn -0.573903 -0.298915 0.762420
vn -0.573903 -0.298915 0.762420
vn -0.573903 -0.298915 0.762420
vn -0.524466 0.664543 0.532277
vn -0.524466 0.664543 0.532277
vn -0.524466 0.664543 0.532277
vn -0.524466 0.664543 0.532277
vn 0.311862 -0.929475 0.197024
vn 0.311862 -0.929475 0.197024
vn 0.311862 -0.929475 0.197024
vn 0.311862 -0.929475 0.197024
vn 0.366600 -0.925031 0.099615
vn 0.366600 -0.925031 0.099615
vn 0.366600 -0.925031 0.099615
vn 0.366600 -0.925031 0.099615
vn -0.889483 -0.453306 0.057736
vn -0.889483 -0.453306 0.057736
vn -0.889483 -0.453306 0.057736
vn -0.889483 -0.453306 0.057736
vn -0.987737 0.073352 -0.137824
vn -0.987737 0.073352 -0.137824
vn -0.987737 0.073352 -0.137824
vn -0.987737 0.073352 -0.137824
vn -0.369161 0.929151 0.019961
vn -0.369161 0.929151 0.019961
vn -0.369161 0.929151 0.019961
vn -0.369161 0.929151 0.019961
vn -0.359399 0.930629 0.069003
vn -0.359399 0.930629 0.069003
vn -0.359399 0.930629 0.069003
vn -0.359399 0.930629 0.069003
vn 0.547802 0.699208 0.459371
vn 0.547802 0.699208 0.459371
vn 0.547802 0.699208 0.459371
vn 0.547802 0.699208 0.459371
vn 0.799214 0.325201 0.505472
vn 0.799214 0.325201 0.505472
vn 0.799214 0.325201 0.505472
vn 0.799214 0.325201 0.505472
vn 0.133177 0.167168 0.976893
vn 0.133177 0.167168 0.976892
vn 0.133177 0.167168 0.976892
vn 0.133177 0.167168 0.976892
vn 0.075313 0.995312 -0.060676
vn 0.075313 0.995312 -0.060676
vn 0.075313 0.995312 -0.060676
vn 0.075313 0.995312 -0.060676
vn 0.266188 0.288408 -0.919764
vn 0.266188 0.288408 -0.919764
vn 0.266188 0.288408 -0.919764
vn 0.266188 0.288408 -0.919764
vn 0.064900 -0.997685 -0.020317
vn 0.064900 -0.997685 -0.020317
vn 0.064900 -0.997685 -0.020317
vn 0.064900 -0.997685 -0.020317
vn 0.968052 0.152802 -0.198815
vn 0.968052 0.152801 -0.198815
vn 0.968052 0.152802 -0.198815
vn 0.968052 0.152801 -0.198815
vn -0.898207 0.436896 0.048442
vn -0.898207 0.436896 0.048442
vn -0.898207 0.436896 0.048442
vn -0.898207 0.436896 0.048442
vn 0.167947 -0.210814 0.962991
vn 0.167947 -0.210814 0.962991
vn 0.167947 -0.210814 0.962991
vn 0.167947 -0.210814 0.962991
vn 0.933438 -0.338943 -0.117524
vn 0.933438 -0.338943 -0.117524
vn 0.933438 -0.338943 -0.117524
vn 0.933438 -0.338943 -0.117524
vn 0.470006 0.000000 -0.882663
vn 0.470006 0.000000 -0.882663
vn 0.470006 0.000000 -0.882663
vn 0.470006 0.000000 -0.882663
vn -0.973941 -0.224377 0.033086
vn -0.973941 -0.224377 0.033086
vn -0.973941 -0.224377 0.033086
vn -0.973941 -0.224377 0.033086
vn -0.087942 0.995412 -0.037691
vn -0.087942 0.995412 -0.037691
vn -0.087942 0.995412 -0.037691
vn -0.087942 0.995412 -0.037691
vn 0.885807 0.439885 0.147806
vn 0.885807 0.439885 0.147806
vn 0.885807 0.439885 0.147806
vn 0.885807 0.439885 0.147806
vn 0.856907 -0.471492 0.208340
vn 0.856907 -0.471492 0.208340
vn 0.856907 -0.471492 0.208340
vn 0.856907 -0.471492 0.208341
vn 0.185321 -0.974175 0.128995
vn 0.185321 -0.974175 0.128995
vn 0.185321 -0.974175 0.128995
vn 0.185321 -0.974175 0.128995
vn -0.989057 -0.065665 -0.132118
vn -0.989057 -0.065665 -0.132118
vn -0.989057 -0.065665 -0.132118
vn -0.989057 -0.065665 -0.132118
vn -0.902135 0.430943 -0.020991
vn -0.902135 0.430943 -0.020991
vn -0.902135 0.430943 -0.020991
vn -0.902135 0.430943 -0.020991
vn -0.145178 -0.989384 0.006473
vn -0.145178 -0.989384 0.006473
vn -0.145178 -0.989384 0.006473
vn -0.145178 -0.989384 0.006473
vn 0.050972 -0.997837 0.041499
vn 0.050972 -0.997837 0.041499
vn 0.050972 -0.997838 0.041499
vn 0.050972 -0.997838 0.041499
vn -0.555327 -0.127562 -0.821791
vn -0.555327 -0.127562 -0.821791
vn -0.555327 -0.127562 -0.821791
vn -0.555327 -0.127562 -0.821791
vn -0.348436 0.377521 -0.857945
vn -0.348436 0.377521 -0.857945
vn -0.348436 0.377521 -0.857945
vn -0.348436 0.377521 -0.857945
vn -0.252885 0.967495 -0.001779
vn -0.252885 0.967495 -0.001779
vn -0.252885 0.967495 -0.001779
vn -0.252885 0.967495 -0.001779
vn -0.283230 0.959027 0.006936
vn -0.283230 0.959027 0.006936
vn -0.283230 0.959027 0.006936
vn -0.283230 0.959027 0.006936
vn 0.170009 0.084564 0.981808
vn 0.170009 0.084564 0.981808
vn 0.170009 0.084564 0.981808
vn 0.170009 0.084564 0.981808
vn 0.330030 0.100502 0.938605
vn 0.330030 0.100502 0.938605
vn 0.330030 0.100502 0.938605
vn 0.330030 0.100502 0.938605
s off
g Normal_Tile_Master_1_2
usemtl Base_Tile1:initialShadingGroup
f 2/1/1 1/2/2 13/3/3 14/4/4
f 6/5/5 5/6/6 16/7/7 15/8/8
f 7/9/9 9/10/10 18/11/11 17/12/12
f 10/13/13 12/14/14 19/15/15 20/16/16
f 1/2/17 2/1/18 3/17/19
f 4/18/20 5/6/21 6/5/22
f 7/9/23 8/19/24 9/10/25
f 10/13/26 11/20/27 12/14/28
s 1
f 34/78/29 35/79/30 32/75/31 33/77/32
s 2
f 35/80/33 36/81/34 31/73/35 32/76/36
s 3
f 38/84/37 39/86/38 28/68/39 29/70/40
s 4
f 39/87/41 40/88/42 27/67/43 28/69/44
s 5
f 2/37/45 14/38/46 48/100/47 49/101/48
s 6
f 49/102/49 50/103/50 3/42/51 2/43/52
s 7
f 9/45/53 8/46/54 54/108/55 55/110/56
s 8
f 55/111/57 56/112/58 18/50/59 9/51/60
s 9
f 36/82/61 51/105/62 52/106/63 31/74/64
s 5
f 22/58/65 21/57/66 57/113/67 58/114/68
s 6
f 58/115/69 59/116/70 23/60/71 22/59/72
s 9
f 60/118/73 61/119/74 30/72/75 37/83/76
s 7
f 25/64/77 24/62/78 63/121/79 64/123/80
s 8
f 64/124/81 65/125/82 26/66/83 25/65/84
s 4
f 46/98/85 47/99/86 19/35/87 12/36/88
s 3
f 45/95/89 46/97/90 12/31/91 11/32/92
s 9
f 62/120/93 63/122/94 24/63/95 44/94/96
f 43/93/97 53/107/98 54/109/99 8/54/100
s 2
f 42/91/101 43/92/102 8/27/103 7/28/104
s 1
f 41/89/105 42/90/106 7/22/107 17/23/108
f 1/21/109 35/79/30 34/78/29 13/24/110
s 2
f 1/25/111 3/26/112 36/81/34 35/80/33
s 9
f 50/104/113 51/105/62 36/82/61 3/55/114
f 59/117/115 60/118/73 37/83/76 23/61/116
s 3
f 4/29/117 6/30/118 39/86/38 38/84/37
s 4
f 6/33/119 15/34/120 40/88/42 39/87/41
s 1
f 33/77/32 32/75/31 42/90/106 41/89/105
s 2
f 32/76/36 31/73/35 43/92/102 42/91/101
s 9
f 31/74/64 52/106/63 53/107/98 43/93/97
f 61/119/74 62/120/93 44/94/96 30/72/75
s 3
f 29/70/40 28/68/39 46/97/90 45/95/89
s 4
f 28/69/44 27/67/43 47/99/86 46/98/85
s 5
f 49/101/48 48/100/47 21/57/66 22/58/65
s 6
f 22/59/72 23/60/71 50/103/50 49/102/49
s 9
f 23/61/116 37/83/76 51/105/62 50/104/113
f 52/106/63 51/105/62 37/83/76 30/72/75
f 53/107/98 52/106/63 30/72/75 44/94/96
f 54/109/99 53/107/98 44/94/96 24/63/95
s 7
f 55/110/56 54/108/55 24/62/78 25/64/77
s 8
f 25/65/84 26/66/83 56/112/58 55/111/57
s 5
f 58/114/68 57/113/67 16/39/121 5/40/122
s 6
f 4/41/123 59/116/70 58/115/69 5/44/124
s 9
f 38/85/125 60/118/73 59/117/115 4/56/126
f 29/71/127 61/119/74 60/118/73 38/85/125
f 45/96/128 62/120/93 61/119/74 29/71/127
f 11/53/129 63/122/94 62/120/93 45/96/128
s 7
f 64/123/80 63/121/79 11/47/130 10/48/131
s 8
f 20/49/132 65/125/82 64/124/81 10/52/133
s off
usemtl blinn2SG
f 90/126/134 91/127/135 75/128/136 69/129/137
f 88/130/138 89/131/139 79/132/140 71/133/141
f 87/134/142 88/130/143 71/133/144 76/135/145
f 85/136/146 86/137/147 73/138/148 81/139/149
f 79/140/150 80/141/151 76/142/152 71/143/153
f 77/144/154 83/145/155 78/146/156 70/147/157
f 91/127/158 84/148/159 67/149/160 75/128/161
f 80/141/162 81/150/163 73/151/164 76/142/165
f 86/137/166 87/134/167 76/135/168 73/138/169
f 72/152/170 82/153/171 83/145/172 77/144/173
f 89/131/174 90/126/175 69/129/176 79/132/177
f 75/128/178 80/141/179 79/140/180 69/129/181
f 67/149/182 81/150/183 80/141/184 75/128/185
f 84/154/186 85/136/187 81/139/188 67/155/189
f 83/145/190 82/153/191 66/156/192 74/157/193
f 78/146/194 83/145/195 74/157/196 68/158/197
f 82/159/198 85/136/199 84/154/200 66/160/201
f 72/161/202 86/137/203 85/136/204 82/159/205
f 77/162/206 87/134/207 86/137/208 72/161/209
f 70/163/210 88/130/211 87/134/212 77/162/213
f 78/164/214 89/131/215 88/130/216 70/163/217
f 68/158/218 90/126/219 89/131/220 78/164/221
f 74/157/222 91/127/223 90/126/224 68/158/225
f 66/156/226 84/148/227 91/127/228 74/157/229
f 116/165/230 117/166/231 101/167/232 95/168/233
f 114/169/234 115/170/235 105/171/236 97/172/237
f 113/173/238 114/169/239 97/172/240 102/174/241
f 111/175/242 112/176/243 99/177/244 107/178/245
f 105/179/246 106/180/247 102/181/248 97/182/249
f 103/183/250 109/184/251 104/185/252 96/186/253
f 117/166/254 110/187/255 93/188/256 101/167/257
f 106/180/258 107/189/259 99/190/260 102/181/261
f 112/176/262 113/173/263 102/174/264 99/177/265
f 98/191/266 108/192/267 109/184/268 103/183/269
f 115/170/270 116/165/271 95/168/272 105/171/273
f 101/167/274 106/180/275 105/179/276 95/168/277
f 93/188/278 107/189/279 106/180/280 101/167/281
f 110/193/282 111/175/283 107/178/284 93/194/285
f 109/184/286 108/192/287 92/195/288 100/196/289
f 104/185/290 109/184/291 100/196/292 94/197/293
f 108/198/294 111/175/295 110/193/296 92/199/297
f 98/200/298 112/176/299 111/175/300 108/198/301
f 103/201/302 113/173/303 112/176/304 98/200/305
f 96/202/306 114/169/307 113/173/308 103/201/309
f 104/203/310 115/170/311 114/169/312 96/202/313
f 94/197/314 116/165/315 115/170/316 104/203/317
f 100/196/318 117/166/319 116/165/320 94/197/321
f 92/195/322 110/187/323 117/166/324 100/196/325
