# This file uses centimeters as units for non-parametric coordinates.

mtllib Environment_Trap_Tile_Master_4.mtl
g default
v 0.704579 0.470308 -0.572630
v 0.267488 0.459399 -0.239934
v 0.398770 0.601211 -0.080953
v 0.323036 0.695240 -0.177369
v 0.229423 0.699268 -0.300224
v 0.153689 0.611758 -0.402592
v 0.124761 0.466135 -0.445372
v 0.153689 0.318023 -0.412223
v 0.229423 0.223995 -0.315808
v 0.323036 0.219967 -0.192953
v 0.398770 0.307477 -0.090585
v 0.427698 0.453099 -0.047805
v 0.818553 0.611689 -0.400474
v 0.742819 0.705717 -0.496890
v 0.649206 0.709745 -0.619745
v 0.573472 0.622235 -0.722113
v 0.544544 0.476613 -0.764893
v 0.573472 0.328500 -0.731744
v 0.649206 0.234472 -0.635329
v 0.742819 0.230444 -0.512474
v 0.818553 0.317954 -0.410106
v 0.847481 0.463576 -0.367326
v 0.707194 0.608778 -0.315959
v 0.736094 0.460806 -0.282842
v 0.707194 0.315322 -0.325581
v 0.631532 0.227895 -0.427852
v 0.538008 0.231920 -0.550590
v 0.462346 0.325859 -0.646914
v 0.433446 0.473830 -0.680031
v 0.462346 0.619314 -0.637291
v 0.538008 0.706741 -0.535021
v 0.631532 0.702716 -0.412282
v 0.719881 0.609201 -0.325417
v 0.644161 0.703211 -0.421815
v 0.550566 0.707239 -0.544647
v 0.474845 0.619745 -0.646997
v 0.445923 0.474149 -0.689769
v 0.474845 0.326064 -0.656627
v 0.550566 0.232053 -0.560229
v 0.644161 0.228026 -0.437396
v 0.719881 0.315520 -0.335047
v 0.748804 0.461115 -0.292275
v 0.511917 0.604100 -0.166954
v 0.540858 0.455919 -0.133790
v 0.511917 0.310228 -0.176591
v 0.436147 0.222677 -0.279007
v 0.342491 0.226707 -0.401919
v 0.266721 0.320779 -0.498380
v 0.237780 0.468961 -0.531544
v 0.266721 0.614652 -0.488744
v 0.342491 0.702203 -0.386328
v 0.436147 0.698173 -0.263415
v 0.497388 0.603639 -0.156082
v 0.526309 0.455563 -0.122941
v 0.497388 0.309976 -0.165711
v 0.421673 0.222488 -0.268054
v 0.328084 0.226516 -0.390878
v 0.252368 0.320520 -0.487270
v 0.223448 0.468596 -0.520410
v 0.252368 0.614182 -0.477641
v 0.328084 0.701671 -0.375298
v 0.421673 0.697643 -0.252473
v 0.721338 0.618002 -0.310144
v 0.640826 0.717962 -0.412643
v 0.541307 0.722245 -0.543248
v 0.460795 0.629214 -0.652074
v 0.430043 0.474404 -0.697553
v 0.460795 0.316948 -0.662314
v 0.541307 0.216988 -0.559816
v 0.640826 0.212706 -0.429210
v 0.721338 0.305736 -0.320384
v 0.752091 0.460546 -0.274905
v 0.511446 0.612764 -0.150384
v 0.542199 0.455307 -0.115144
v 0.511446 0.300498 -0.160623
v 0.430934 0.207467 -0.269449
v 0.331416 0.211750 -0.400055
v 0.250904 0.311710 -0.502553
v 0.220151 0.469166 -0.537793
v 0.250904 0.623975 -0.492314
v 0.331416 0.717006 -0.383488
v 0.430934 0.712724 -0.252882
v 0.401347 0.604189 -0.077470
v 0.324020 0.700195 -0.175913
v 0.315278 0.699976 -0.169259
v 0.392605 0.603971 -0.070816
v 0.228439 0.704308 -0.301352
v 0.219697 0.704089 -0.294698
v 0.151112 0.614957 -0.405872
v 0.142370 0.614739 -0.399218
v 0.121576 0.466273 -0.449552
v 0.112834 0.466054 -0.442898
v 0.151112 0.315046 -0.415706
v 0.142370 0.314827 -0.409053
v 0.228439 0.219040 -0.317263
v 0.219697 0.218822 -0.310610
v 0.324020 0.214927 -0.191825
v 0.315278 0.214709 -0.185171
v 0.401347 0.304277 -0.087304
v 0.392605 0.304059 -0.080650
v 0.430883 0.452962 -0.043624
v 0.422141 0.452744 -0.036971
v 0.829697 0.614880 -0.403512
v 0.752370 0.710885 -0.501955
v 0.743803 0.710672 -0.495434
v 0.821130 0.614666 -0.396991
v 0.656789 0.714999 -0.627393
v 0.648222 0.714785 -0.620873
v 0.579462 0.625648 -0.731914
v 0.570895 0.625435 -0.725393
v 0.549926 0.476963 -0.775594
v 0.541359 0.476750 -0.769073
v 0.579462 0.325737 -0.741748
v 0.570895 0.325523 -0.735228
v 0.656789 0.229731 -0.643305
v 0.648222 0.229517 -0.636785
v 0.752370 0.225618 -0.517867
v 0.743803 0.225404 -0.511346
v 0.829697 0.314968 -0.413346
v 0.821130 0.314754 -0.406825
v 0.859233 0.463653 -0.369666
v 0.850666 0.463439 -0.363146
v -0.859598 0.172469 0.809610
v -0.806331 0.168277 0.860894
v -0.797498 0.218272 0.797498
v 0.797498 0.218272 0.797498
v 0.809610 0.172469 0.859598
v 0.859598 0.172469 0.809610
v -0.860894 0.168277 -0.806331
v -0.797498 0.218272 -0.797498
v -0.806331 0.168277 -0.860894
v 0.806331 0.168277 -0.860894
v 0.797498 0.218272 -0.797498
v 0.860894 0.168277 -0.806331
v -1.000000 -0.281728 0.945436
v -0.945436 -0.281728 1.000000
v 1.000000 -0.281728 0.945436
v 0.945436 -0.281728 1.000000
v -1.000000 -0.281728 -0.945436
v -0.945436 -0.281728 -1.000000
v 1.000000 -0.281728 -0.945436
v 0.945436 -0.281728 -1.000000
vt 0.154780 0.467643
vt 0.154780 0.966410
vt 0.245465 0.852816
vt 0.064095 0.852816
vt 0.082232 0.852816
vt 0.100369 0.852816
vt 0.118506 0.852816
vt 0.136643 0.852816
vt 0.154780 0.852816
vt 0.172917 0.852816
vt 0.191054 0.852816
vt 0.209191 0.852816
vt 0.227328 0.852816
vt 0.245465 0.590879
vt 0.064095 0.590879
vt 0.082232 0.590879
vt 0.100369 0.590879
vt 0.118506 0.590879
vt 0.136643 0.590879
vt 0.154780 0.590879
vt 0.172917 0.590879
vt 0.191054 0.590879
vt 0.209191 0.590879
vt 0.227328 0.590879
vt 0.245465 0.787332
vt 0.064095 0.787332
vt 0.227328 0.787332
vt 0.209191 0.787332
vt 0.191054 0.787332
vt 0.172917 0.787332
vt 0.154780 0.787332
vt 0.136643 0.787332
vt 0.118506 0.787332
vt 0.100369 0.787332
vt 0.082232 0.787332
vt 0.245465 0.656363
vt 0.064095 0.656363
vt 0.082232 0.656363
vt 0.100369 0.656363
vt 0.118506 0.656363
vt 0.136643 0.656363
vt 0.154780 0.656363
vt 0.172917 0.656363
vt 0.191054 0.656363
vt 0.209191 0.656363
vt 0.227328 0.656363
vt 0.245465 0.660292
vt 0.064095 0.660292
vt 0.227328 0.660292
vt 0.209191 0.660292
vt 0.191054 0.660292
vt 0.172917 0.660292
vt 0.154780 0.660292
vt 0.136643 0.660292
vt 0.118506 0.660292
vt 0.100369 0.660292
vt 0.082232 0.660292
vt 0.245465 0.652434
vt 0.064095 0.652434
vt 0.082232 0.652434
vt 0.100369 0.652434
vt 0.118506 0.652434
vt 0.136643 0.652434
vt 0.154780 0.652434
vt 0.172917 0.652434
vt 0.191054 0.652434
vt 0.209191 0.652434
vt 0.227328 0.652434
vt 0.245465 0.782250
vt 0.064095 0.782250
vt 0.227328 0.782250
vt 0.209191 0.782250
vt 0.191054 0.782250
vt 0.172917 0.782250
vt 0.154780 0.782250
vt 0.136643 0.782250
vt 0.118506 0.782250
vt 0.100369 0.782250
vt 0.082232 0.782250
vt 0.245465 0.791261
vt 0.064095 0.791261
vt 0.227328 0.791261
vt 0.209191 0.791261
vt 0.191054 0.791261
vt 0.172917 0.791261
vt 0.154780 0.791261
vt 0.136643 0.791261
vt 0.118506 0.791261
vt 0.100369 0.791261
vt 0.082232 0.791261
vt 0.064095 0.852816
vt 0.082232 0.852816
vt 0.082232 0.858270
vt 0.064095 0.858270
vt 0.100369 0.852816
vt 0.100369 0.858270
vt 0.118506 0.852816
vt 0.118506 0.858270
vt 0.136643 0.852816
vt 0.136643 0.858270
vt 0.154780 0.852816
vt 0.154780 0.858270
vt 0.172917 0.852816
vt 0.172917 0.858270
vt 0.191054 0.852816
vt 0.191054 0.858270
vt 0.209191 0.852816
vt 0.209191 0.858270
vt 0.227328 0.852816
vt 0.227328 0.858270
vt 0.245465 0.852816
vt 0.245465 0.858270
vt 0.064095 0.585534
vt 0.082232 0.585534
vt 0.082232 0.590879
vt 0.064095 0.590879
vt 0.100369 0.585534
vt 0.100369 0.590879
vt 0.118506 0.585534
vt 0.118506 0.590879
vt 0.136643 0.585534
vt 0.136643 0.590879
vt 0.154780 0.585534
vt 0.154780 0.590879
vt 0.172917 0.585534
vt 0.172917 0.590879
vt 0.191054 0.585534
vt 0.191054 0.590879
vt 0.209191 0.585534
vt 0.209191 0.590879
vt 0.227328 0.585534
vt 0.227328 0.590879
vt 0.245465 0.585534
vt 0.245465 0.590879
vt 0.641315 0.978200
vt 0.643949 0.988160
vt 0.990790 0.988160
vt 0.992710 0.977288
vt 0.791572 0.953779
vt 0.797821 0.954289
vt 0.781271 0.898946
vt 0.774622 0.898946
vt 0.643236 0.988160
vt 0.641315 0.977288
vt 0.992710 0.978200
vt 0.990077 0.988160
vt 0.643949 0.988160
vt 0.641315 0.978200
vt 0.992710 0.977288
vt 0.990790 0.988160
vt 0.797821 0.954289
vt 0.791730 0.954289
vt 0.774622 0.898946
vt 0.781271 0.898946
vt 0.838184 0.953425
vt 0.845129 0.953425
vt 0.862836 0.896146
vt 0.855890 0.896146
vt 0.641315 0.977288
vt 0.643236 0.988160
vt 0.990077 0.988160
vt 0.991997 0.977288
vt 0.845129 0.953425
vt 0.838184 0.953425
vt 0.855890 0.896146
vt 0.862836 0.896146
vt 0.887146 0.955255
vt 0.879109 0.929256
vt 0.988353 0.929256
vt 0.980506 0.955497
vt 0.315340 0.022752
vt 0.982954 0.022752
vt 0.982954 0.690366
vt 0.315340 0.690366
vt 0.887146 0.955255
vt 0.980316 0.955255
vt 0.988353 0.929256
vt 0.879109 0.929256
vt 0.886956 0.955497
vt 0.879109 0.929256
vt 0.988353 0.929256
vt 0.980316 0.955255
vt 0.980316 0.955255
vt 0.988353 0.929256
vt 0.879109 0.929256
vt 0.886956 0.955497
vt 0.799297 0.959870
vt 0.799297 0.959870
vt 0.837060 0.959789
vt 0.837060 0.959789
vn 0.490162 0.566376 0.662540
vn 0.187225 0.942489 0.276878
vn 0.187225 0.942489 0.276878
vn 0.490162 0.566377 0.662540
vn -0.187224 0.958603 -0.214541
vn -0.187225 0.958603 -0.214542
vn -0.490161 0.608563 -0.624014
vn -0.490162 0.608562 -0.624014
vn -0.605874 0.026073 -0.795133
vn -0.605874 0.026072 -0.795133
vn -0.490162 -0.566376 -0.662540
vn -0.490162 -0.566376 -0.662540
vn -0.187224 -0.942489 -0.276878
vn -0.187224 -0.942489 -0.276878
vn 0.187225 -0.958602 0.214543
vn 0.187224 -0.958603 0.214542
vn 0.490160 -0.608563 0.624014
vn 0.490160 -0.608563 0.624014
vn 0.605873 -0.026073 0.795134
vn 0.605873 -0.026073 0.795134
vn -0.795561 -0.019856 0.605548
vn -0.795561 -0.019856 0.605548
vn -0.795561 -0.019856 0.605548
vn -0.795561 -0.019856 0.605548
vn -0.795561 -0.019856 0.605548
vn -0.795561 -0.019856 0.605548
vn -0.795561 -0.019856 0.605548
vn -0.795561 -0.019856 0.605548
vn -0.795561 -0.019856 0.605548
vn -0.795561 -0.019856 0.605548
vn -0.795561 -0.019856 0.605548
vn 0.481210 0.566117 0.669289
vn 0.178294 0.942206 0.283653
vn -0.630193 0.399890 0.665541
vn -0.495937 0.233206 0.836457
vn -0.196134 0.958320 -0.207737
vn -0.796142 0.407031 0.447754
vn -0.499050 0.608302 -0.617185
vn -0.930397 0.251902 0.266284
vn -0.614754 0.025847 -0.788295
vn -0.981677 -0.006245 0.190448
vn -0.499049 -0.566565 -0.655709
vn -0.930396 -0.268806 0.249211
vn -0.196131 -0.942653 -0.270070
vn -0.796141 -0.435492 0.420126
vn 0.178293 -0.958765 0.221317
vn -0.630193 -0.442633 0.637913
vn 0.481212 -0.608747 0.630763
vn -0.495937 -0.287501 0.819383
vn 0.596915 -0.026294 0.801873
vn -0.444657 -0.029354 0.895220
vn 0.490163 0.566377 0.662539
vn 0.187227 0.942489 0.276876
vn 0.187227 0.942490 0.276875
vn 0.490163 0.566377 0.662539
vn -0.187223 0.958602 -0.214545
vn -0.187222 0.958603 -0.214543
vn -0.490160 0.608563 -0.624014
vn -0.490160 0.608563 -0.624015
vn -0.605873 0.026072 -0.795134
vn -0.605873 0.026073 -0.795134
vn -0.490160 -0.566377 -0.662542
vn -0.490160 -0.566376 -0.662542
vn -0.187222 -0.942489 -0.276880
vn -0.187222 -0.942489 -0.276880
vn 0.187225 -0.958602 0.214543
vn 0.187224 -0.958603 0.214541
vn 0.490158 -0.608565 0.624014
vn 0.490159 -0.608564 0.624015
vn 0.605873 -0.026073 0.795134
vn 0.605873 -0.026073 0.795134
vn 0.608047 -0.026019 0.793474
vn 0.492336 0.566429 0.660881
vn -0.492452 0.235475 0.837880
vn -0.440716 -0.029418 0.897165
vn 0.492336 -0.608507 0.622354
vn -0.492451 -0.289859 0.820654
vn 0.189401 -0.958545 0.212884
vn -0.627899 -0.446368 0.637573
vn -0.185048 -0.942431 -0.278534
vn -0.795322 -0.439163 0.417851
vn -0.487984 -0.566320 -0.664193
vn -0.930770 -0.270996 0.245416
vn -0.603695 0.026127 -0.796787
vn -0.982506 -0.006104 0.186132
vn -0.487981 0.608616 -0.625668
vn -0.930769 0.254338 0.262643
vn -0.185046 0.958654 -0.216197
vn -0.795321 0.410847 0.445724
vn 0.189401 0.942540 0.275221
vn -0.627899 0.403641 0.665444
vn 0.930804 0.271203 -0.245056
vn 0.795244 0.439508 -0.417635
vn 0.627682 0.446720 -0.637539
vn 0.492120 0.290082 -0.820774
vn 0.440341 0.029424 -0.897349
vn 0.492122 -0.235689 -0.838013
vn 0.627683 -0.403995 -0.665434
vn 0.795243 -0.411207 -0.445531
vn 0.930803 -0.254569 -0.262297
vn 0.982583 0.006089 -0.185723
vn 0.491311 0.566404 0.661664
vn 0.491311 0.566404 0.661664
vn 0.607022 -0.026044 0.794258
vn 0.607022 -0.026044 0.794258
vn 0.491311 -0.608533 0.623138
vn 0.491311 -0.608533 0.623138
vn 0.188374 -0.958573 0.213666
vn 0.188374 -0.958573 0.213666
vn -0.186075 -0.942459 -0.277753
vn -0.186075 -0.942459 -0.277753
vn -0.489012 -0.566347 -0.663414
vn -0.489012 -0.566347 -0.663414
vn -0.604723 0.026101 -0.796008
vn -0.604723 0.026101 -0.796008
vn -0.489012 0.608591 -0.624888
vn -0.489012 0.608591 -0.624888
vn -0.186075 0.958630 -0.215417
vn -0.186075 0.958630 -0.215417
vn 0.188374 0.942517 0.276003
vn 0.188374 0.942517 0.276003
vn 0.489868 0.566369 0.662764
vn 0.186931 0.942482 0.277102
vn 0.186931 0.942482 0.277102
vn 0.489868 0.566369 0.662764
vn -0.187519 0.958595 -0.214318
vn -0.187519 0.958595 -0.214318
vn -0.490455 0.608555 -0.623790
vn -0.490455 0.608555 -0.623790
vn -0.606167 0.026065 -0.794910
vn -0.606167 0.026065 -0.794910
vn -0.490456 -0.566384 -0.662316
vn -0.490456 -0.566383 -0.662316
vn -0.187519 -0.942496 -0.276655
vn -0.187519 -0.942496 -0.276655
vn 0.186931 -0.958610 0.214765
vn 0.186931 -0.958610 0.214765
vn 0.489868 -0.608570 0.624237
vn 0.489868 -0.608570 0.624237
vn 0.605579 -0.026080 0.795357
vn 0.605579 -0.026080 0.795358
vn 0.997427 0.002349 -0.071650
vn 0.934100 0.326586 -0.144216
vn 0.934100 -0.316437 -0.165301
vn 0.768309 -0.508007 -0.389398
vn 0.563379 -0.499188 -0.658343
vn 0.397586 -0.293349 -0.869409
vn 0.334261 0.030887 -0.941974
vn 0.397590 0.349672 -0.848323
vn 0.563380 0.541243 -0.624227
vn 0.768309 0.532424 -0.355282
vn 0.606270 -0.026063 0.794832
vn 0.490559 0.566386 0.662238
vn 0.490559 0.566386 0.662238
vn 0.606270 -0.026063 0.794832
vn 0.490559 -0.608553 0.623711
vn 0.490559 -0.608553 0.623711
vn 0.187622 -0.958593 0.214239
vn 0.187622 -0.958592 0.214239
vn -0.186828 -0.942479 -0.277181
vn -0.186828 -0.942479 -0.277181
vn -0.489765 -0.566367 -0.662842
vn -0.489765 -0.566367 -0.662842
vn -0.605476 0.026082 -0.795436
vn -0.605476 0.026082 -0.795436
vn -0.489765 0.608572 -0.624316
vn -0.489765 0.608572 -0.624316
vn -0.186828 0.958612 -0.214844
vn -0.186828 0.958612 -0.214844
vn 0.187622 0.942499 0.276576
vn 0.187622 0.942499 0.276576
vn 0.795563 0.019858 -0.605546
vn 0.795563 0.019858 -0.605545
vn 0.795563 0.019858 -0.605545
vn 0.795563 0.019858 -0.605546
vn 0.795563 0.019857 -0.605546
vn 0.795563 0.019857 -0.605546
vn 0.795563 0.019858 -0.605546
vn 0.795563 0.019858 -0.605546
vn 0.795563 0.019856 -0.605545
vn 0.795563 0.019856 -0.605545
vn 0.795562 0.019857 -0.605547
vn 0.795562 0.019857 -0.605547
vn 0.795562 0.019858 -0.605547
vn 0.795562 0.019858 -0.605547
vn 0.795561 0.019860 -0.605548
vn 0.795561 0.019860 -0.605548
vn 0.795560 0.019859 -0.605549
vn 0.795560 0.019859 -0.605549
vn 0.795562 0.019856 -0.605547
vn 0.795562 0.019856 -0.605547
vn 0.795561 0.019856 -0.605548
vn 0.795561 0.019856 -0.605548
vn 0.795561 0.019856 -0.605548
vn -0.795557 -0.019855 0.605553
vn -0.795559 -0.019858 0.605551
vn -0.795559 -0.019858 0.605551
vn -0.795557 -0.019855 0.605553
vn 0.795561 0.019856 -0.605548
vn -0.795558 -0.019855 0.605552
vn -0.795558 -0.019855 0.605552
vn 0.795561 0.019856 -0.605548
vn -0.795561 -0.019857 0.605548
vn -0.795561 -0.019857 0.605548
vn 0.795561 0.019856 -0.605548
vn -0.795563 -0.019857 0.605545
vn -0.795563 -0.019857 0.605545
vn 0.795561 0.019856 -0.605548
vn -0.795564 -0.019865 0.605543
vn -0.795564 -0.019865 0.605543
vn 0.795561 0.019856 -0.605548
vn -0.795563 -0.019869 0.605545
vn -0.795563 -0.019869 0.605545
vn 0.795561 0.019856 -0.605548
vn -0.795563 -0.019857 0.605546
vn -0.795562 -0.019857 0.605546
vn 0.795562 0.019856 -0.605547
vn -0.795561 -0.019852 0.605548
vn -0.795561 -0.019852 0.605548
vn 0.795561 0.019856 -0.605548
vn -0.795558 -0.019856 0.605551
vn -0.795558 -0.019856 0.605551
vn -0.606784 0.794866 -0.000793
vn -0.606784 0.794866 -0.000793
vn -0.334221 0.875594 -0.348758
vn -0.650905 0.739475 -0.171753
vn -0.168497 0.737236 0.654288
vn -0.627823 0.415776 0.658003
vn -0.634822 0.397668 0.662466
vn -0.634822 0.397668 0.662466
vn -0.005945 0.795094 0.606457
vn 0.170134 0.739287 0.651544
vn 0.336341 0.879630 0.336342
vn 0.651543 0.739287 0.170134
vn 0.650905 0.739475 -0.171753
vn 0.334221 0.875594 -0.348758
vn 0.649587 0.395059 0.649588
vn 0.649587 0.395059 0.649588
vn -0.167966 0.732500 -0.659721
vn -0.647901 0.400559 -0.647901
vn -0.647901 0.400559 -0.647901
vn 0.167966 0.732500 -0.659721
vn 0.647901 0.400560 -0.647901
vn 0.647901 0.400560 -0.647901
vn -0.000000 0.295332 0.955395
vn -0.000000 0.295332 0.955395
vn -0.000000 0.295332 0.955395
vn -0.000000 0.295332 0.955395
vn 0.000000 1.000000 0.000000
vn 0.000000 1.000000 0.000000
vn 0.000000 1.000000 0.000000
vn 0.000000 1.000000 0.000000
vn 0.000000 0.295333 -0.955395
vn 0.000000 0.295333 -0.955395
vn 0.000000 0.295333 -0.955395
vn 0.000000 0.295333 -0.955395
vn 0.955395 0.295332 -0.000000
vn 0.955395 0.295332 -0.000000
vn 0.955395 0.295332 -0.000000
vn 0.955395 0.295332 -0.000000
vn -0.955395 0.295332 -0.000000
vn -0.955395 0.295332 -0.000000
vn -0.955395 0.295332 -0.000000
vn -0.955395 0.295332 -0.000000
s 1
g pCylinder4
usemtl initialShadingGroup
f 83/91/1 84/92/2 85/93/3 86/94/4
f 84/92/2 87/95/5 88/96/6 85/93/3
f 87/95/5 89/97/7 90/98/8 88/96/6
f 89/97/7 91/99/9 92/100/10 90/98/8
f 91/99/9 93/101/11 94/102/12 92/100/10
f 93/101/11 95/103/13 96/104/14 94/102/12
f 95/103/13 97/105/15 98/106/16 96/104/14
f 97/105/15 99/107/17 100/108/18 98/106/16
f 99/107/17 101/109/19 102/110/20 100/108/18
f 101/109/19 83/111/1 86/112/4 102/110/20
s 2
f 2/2/21 86/94/22 85/93/23
f 2/2/21 85/93/23 88/96/24
f 2/2/21 88/96/24 90/98/25
f 2/2/21 90/98/25 92/100/26
f 2/2/21 92/100/26 94/102/27
f 2/2/21 94/102/27 96/104/28
f 2/2/21 96/104/28 98/106/29
f 2/2/21 98/106/29 100/108/30
f 2/2/21 100/108/30 102/110/31
f 2/2/21 102/110/31 86/112/22
s 3
f 63/37/32 64/38/33 32/57/34 23/48/35
f 64/38/33 65/39/36 31/56/37 32/57/34
f 65/39/36 66/40/38 30/55/39 31/56/37
f 66/40/38 67/41/40 29/54/41 30/55/39
f 67/41/40 68/42/42 28/53/43 29/54/41
f 68/42/42 69/43/44 27/52/45 28/53/43
f 69/43/44 70/44/46 26/51/47 27/52/45
f 70/44/46 71/45/48 25/50/49 26/51/47
f 71/45/48 72/46/50 24/49/51 25/50/49
f 72/46/50 63/36/32 23/47/35 24/49/51
s 4
f 103/113/52 104/114/53 105/115/54 106/116/55
f 104/114/53 107/117/56 108/118/57 105/115/54
f 107/117/56 109/119/58 110/120/59 108/118/57
f 109/119/58 111/121/60 112/122/61 110/120/59
f 111/121/60 113/123/62 114/124/63 112/122/61
f 113/123/62 115/125/64 116/126/65 114/124/63
f 115/125/64 117/127/66 118/128/67 116/126/65
f 117/127/66 119/129/68 120/130/69 118/128/67
f 119/129/68 121/131/70 122/132/71 120/130/69
f 121/131/70 103/133/52 106/134/55 122/132/71
s 5
f 74/27/72 73/25/73 53/80/74 54/82/75
f 75/28/76 74/27/72 54/82/75 55/83/77
f 76/29/78 75/28/76 55/83/77 56/84/79
f 77/30/80 76/29/78 56/84/79 57/85/81
f 78/31/82 77/30/80 57/85/81 58/86/83
f 79/32/84 78/31/82 58/86/83 59/87/85
f 80/33/86 79/32/84 59/87/85 60/88/87
f 81/34/88 80/33/86 60/88/87 61/89/89
f 82/35/90 81/34/88 61/89/89 62/90/91
f 73/26/73 82/35/90 62/90/91 53/81/74
s 3
f 33/59/92 34/60/93 64/38/33 63/37/32
f 34/60/93 35/61/94 65/39/36 64/38/33
f 35/61/94 36/62/95 66/40/38 65/39/36
f 36/62/95 37/63/96 67/41/40 66/40/38
f 37/63/96 38/64/97 68/42/42 67/41/40
f 38/64/97 39/65/98 69/43/44 68/42/42
f 39/65/98 40/66/99 70/44/46 69/43/44
f 40/66/99 41/67/100 71/45/48 70/44/46
f 41/67/100 42/68/101 72/46/50 71/45/48
f 42/68/101 33/58/92 63/36/32 72/46/50
s 6
f 23/47/102 43/69/103 44/71/104 24/49/105
f 44/71/104 45/72/106 25/50/107 24/49/105
f 45/72/106 46/73/108 26/51/109 25/50/107
f 46/73/108 47/74/110 27/52/111 26/51/109
f 47/74/110 48/75/112 28/53/113 27/52/111
f 48/75/112 49/76/114 29/54/115 28/53/113
f 49/76/114 50/77/116 30/55/117 29/54/115
f 50/77/116 51/78/118 31/56/119 30/55/117
f 51/78/118 52/79/120 32/57/121 31/56/119
f 52/79/120 43/70/103 23/48/102 32/57/121
s 7
f 13/15/122 14/16/123 34/60/124 33/59/125
f 14/16/123 15/17/126 35/61/127 34/60/124
f 15/17/126 16/18/128 36/62/129 35/61/127
f 16/18/128 17/19/130 37/63/131 36/62/129
f 17/19/130 18/20/132 38/64/133 37/63/131
f 18/20/132 19/21/134 39/65/135 38/64/133
f 19/21/134 20/22/136 40/66/137 39/65/135
f 20/22/136 21/23/138 41/67/139 40/66/137
f 21/23/138 22/24/140 42/68/141 41/67/139
f 22/24/140 13/14/122 33/58/125 42/68/141
s 5
f 74/27/72 44/71/142 43/69/143 73/25/73
f 75/28/76 45/72/144 44/71/142 74/27/72
f 76/29/78 46/73/145 45/72/144 75/28/76
f 77/30/80 47/74/146 46/73/145 76/29/78
f 78/31/82 48/75/147 47/74/146 77/30/80
f 79/32/84 49/76/148 48/75/147 78/31/82
f 80/33/86 50/77/149 49/76/148 79/32/84
f 81/34/88 51/78/150 50/77/149 80/33/86
f 82/35/90 52/79/151 51/78/150 81/34/88
f 73/26/73 43/70/143 52/79/151 82/35/90
s 8
f 54/82/152 53/80/153 3/3/154 12/13/155
f 55/83/156 54/82/152 12/13/155 11/12/157
f 56/84/158 55/83/156 11/12/157 10/11/159
f 57/85/160 56/84/158 10/11/159 9/10/161
f 58/86/162 57/85/160 9/10/161 8/9/163
f 59/87/164 58/86/162 8/9/163 7/8/165
f 60/88/166 59/87/164 7/8/165 6/7/167
f 61/89/168 60/88/166 6/7/167 5/6/169
f 62/90/170 61/89/168 5/6/169 4/5/171
f 53/81/153 62/90/170 4/5/171 3/4/154
s 9
f 3/4/172 4/5/173 84/92/174 83/91/175
f 4/5/173 5/6/176 87/95/177 84/92/174
f 5/6/176 6/7/178 89/97/179 87/95/177
f 6/7/178 7/8/180 91/99/181 89/97/179
f 7/8/180 8/9/182 93/101/183 91/99/181
f 8/9/182 9/10/184 95/103/185 93/101/183
f 9/10/184 10/11/186 97/105/187 95/103/185
f 10/11/186 11/12/188 99/107/189 97/105/187
f 11/12/188 12/13/190 101/109/191 99/107/189
f 12/13/190 3/3/172 83/111/175 101/109/191
s 10
f 1/1/192 104/114/193 103/113/194
s 11
f 14/16/195 13/15/196 106/116/197 105/115/198
s 10
f 1/1/192 107/117/199 104/114/193
s 11
f 15/17/200 14/16/195 105/115/198 108/118/201
s 10
f 1/1/192 109/119/202 107/117/199
s 11
f 16/18/203 15/17/200 108/118/201 110/120/204
s 10
f 1/1/192 111/121/205 109/119/202
s 11
f 17/19/206 16/18/203 110/120/204 112/122/207
s 10
f 1/1/192 113/123/208 111/121/205
s 11
f 18/20/209 17/19/206 112/122/207 114/124/210
s 10
f 1/1/192 115/125/211 113/123/208
s 11
f 19/21/212 18/20/209 114/124/210 116/126/213
s 10
f 1/1/192 117/127/214 115/125/211
s 11
f 20/22/215 19/21/212 116/126/213 118/128/216
s 10
f 1/1/192 119/129/217 117/127/214
s 11
f 21/23/218 20/22/215 118/128/216 120/130/219
s 10
f 1/1/192 121/131/220 119/129/217
s 11
f 22/24/221 21/23/218 120/130/219 122/132/222
s 10
f 1/1/192 103/133/194 121/131/220
s 11
f 13/14/196 22/24/221 122/132/222 106/134/197
s 12
f 123/135/223 125/136/224 130/137/225 129/138/226
f 124/139/227 123/140/228 135/141/229 136/142/230
f 125/143/231 124/144/227 127/145/232 126/146/233
f 126/147/233 128/148/234 134/149/235 133/150/236
f 128/151/234 127/152/232 138/153/237 137/154/238
f 129/155/226 131/156/239 140/157/240 139/158/241
f 131/159/239 130/160/225 133/161/236 132/162/242
f 132/163/242 134/164/235 141/165/243 142/166/244
s off
f 124/167/245 136/168/246 138/169/247 127/170/248
f 125/171/249 126/172/250 133/173/251 130/174/252
f 131/175/253 132/176/254 142/177/255 140/178/256
f 128/179/257 137/180/258 141/181/259 134/182/260
f 129/183/261 139/184/262 135/185/263 123/186/264
s 12
f 123/140/228 124/139/227 125/187/231
f 126/188/233 127/152/232 128/151/234
f 129/155/226 130/189/225 131/156/239
f 132/163/242 133/190/236 134/164/235
